<mxfile host="app.diagrams.net" agent="Mozilla/5.0 (Windows NT 10.0; Win64; x64) AppleWebKit/537.36 (KHTML, like Gecko) Chrome/130.0.0.0 Safari/537.36" version="24.8.3">
  <diagram name="PÃ¡gina-1" id="FWJGGt32tnh-q4_Kq77q">
    <mxGraphModel dx="496" dy="833" grid="1" gridSize="10" guides="1" tooltips="1" connect="1" arrows="1" fold="1" page="1" pageScale="1" pageWidth="827" pageHeight="1169" math="0" shadow="0">
      <root>
        <mxCell id="0" />
        <mxCell id="1" parent="0" />
        <mxCell id="fUOZnAYa9IWztRi_Jad_-4" value="" style="rounded=0;whiteSpace=wrap;html=1;" vertex="1" parent="1">
          <mxGeometry x="970" y="40" width="660" height="1110" as="geometry" />
        </mxCell>
        <mxCell id="fUOZnAYa9IWztRi_Jad_-5" value="" style="rounded=0;whiteSpace=wrap;html=1;" vertex="1" parent="1">
          <mxGeometry x="980" y="70" width="640" height="60" as="geometry" />
        </mxCell>
        <mxCell id="fUOZnAYa9IWztRi_Jad_-6" value="NAV" style="rounded=0;whiteSpace=wrap;html=1;" vertex="1" parent="1">
          <mxGeometry x="840" y="70" width="110" height="60" as="geometry" />
        </mxCell>
        <mxCell id="fUOZnAYa9IWztRi_Jad_-7" value="" style="rounded=0;whiteSpace=wrap;html=1;" vertex="1" parent="1">
          <mxGeometry x="980" y="140" width="640" height="220" as="geometry" />
        </mxCell>
        <mxCell id="fUOZnAYa9IWztRi_Jad_-8" value="" style="rounded=0;whiteSpace=wrap;html=1;" vertex="1" parent="1">
          <mxGeometry x="980" y="370" width="640" height="220" as="geometry" />
        </mxCell>
        <mxCell id="fUOZnAYa9IWztRi_Jad_-10" value="HEADER" style="rounded=0;whiteSpace=wrap;html=1;" vertex="1" parent="1">
          <mxGeometry x="840" y="140" width="110" height="220" as="geometry" />
        </mxCell>
        <mxCell id="fUOZnAYa9IWztRi_Jad_-11" value="SECTIONS" style="rounded=0;whiteSpace=wrap;html=1;" vertex="1" parent="1">
          <mxGeometry x="840" y="370" width="110" height="680" as="geometry" />
        </mxCell>
        <mxCell id="fUOZnAYa9IWztRi_Jad_-12" value="" style="rounded=0;whiteSpace=wrap;html=1;" vertex="1" parent="1">
          <mxGeometry x="980" y="600" width="640" height="220" as="geometry" />
        </mxCell>
        <mxCell id="fUOZnAYa9IWztRi_Jad_-13" value="" style="rounded=0;whiteSpace=wrap;html=1;" vertex="1" parent="1">
          <mxGeometry x="980" y="830" width="640" height="220" as="geometry" />
        </mxCell>
        <mxCell id="fUOZnAYa9IWztRi_Jad_-14" value="" style="whiteSpace=wrap;html=1;aspect=fixed;" vertex="1" parent="1">
          <mxGeometry x="1030" y="420" width="140" height="140" as="geometry" />
        </mxCell>
        <mxCell id="fUOZnAYa9IWztRi_Jad_-15" value="" style="whiteSpace=wrap;html=1;aspect=fixed;" vertex="1" parent="1">
          <mxGeometry x="1230" y="420" width="140" height="140" as="geometry" />
        </mxCell>
        <mxCell id="fUOZnAYa9IWztRi_Jad_-16" value="" style="whiteSpace=wrap;html=1;aspect=fixed;" vertex="1" parent="1">
          <mxGeometry x="1430" y="420" width="140" height="140" as="geometry" />
        </mxCell>
        <mxCell id="fUOZnAYa9IWztRi_Jad_-17" value="" style="whiteSpace=wrap;html=1;aspect=fixed;" vertex="1" parent="1">
          <mxGeometry x="1030" y="640" width="140" height="140" as="geometry" />
        </mxCell>
        <mxCell id="fUOZnAYa9IWztRi_Jad_-18" value="" style="whiteSpace=wrap;html=1;aspect=fixed;" vertex="1" parent="1">
          <mxGeometry x="1230" y="640" width="140" height="140" as="geometry" />
        </mxCell>
        <mxCell id="fUOZnAYa9IWztRi_Jad_-19" value="" style="whiteSpace=wrap;html=1;aspect=fixed;" vertex="1" parent="1">
          <mxGeometry x="1430" y="640" width="140" height="140" as="geometry" />
        </mxCell>
        <mxCell id="fUOZnAYa9IWztRi_Jad_-23" value="" style="rounded=0;whiteSpace=wrap;html=1;" vertex="1" parent="1">
          <mxGeometry x="980" y="1070" width="640" height="60" as="geometry" />
        </mxCell>
        <mxCell id="fUOZnAYa9IWztRi_Jad_-24" value="FOOTER" style="rounded=0;whiteSpace=wrap;html=1;" vertex="1" parent="1">
          <mxGeometry x="840" y="1070" width="110" height="60" as="geometry" />
        </mxCell>
        <mxCell id="fUOZnAYa9IWztRi_Jad_-26" value="" style="rounded=0;whiteSpace=wrap;html=1;" vertex="1" parent="1">
          <mxGeometry x="1030" y="870" width="540" height="150" as="geometry" />
        </mxCell>
        <mxCell id="fUOZnAYa9IWztRi_Jad_-28" value="LOGO" style="rounded=0;whiteSpace=wrap;html=1;" vertex="1" parent="1">
          <mxGeometry x="990" y="80" width="100" height="40" as="geometry" />
        </mxCell>
        <mxCell id="fUOZnAYa9IWztRi_Jad_-29" value="Link" style="rounded=0;whiteSpace=wrap;html=1;" vertex="1" parent="1">
          <mxGeometry x="1400" y="90" width="60" height="20" as="geometry" />
        </mxCell>
        <mxCell id="fUOZnAYa9IWztRi_Jad_-30" value="Link" style="rounded=0;whiteSpace=wrap;html=1;" vertex="1" parent="1">
          <mxGeometry x="1470" y="90" width="60" height="20" as="geometry" />
        </mxCell>
        <mxCell id="fUOZnAYa9IWztRi_Jad_-31" value="Link" style="rounded=0;whiteSpace=wrap;html=1;" vertex="1" parent="1">
          <mxGeometry x="1540" y="90" width="60" height="20" as="geometry" />
        </mxCell>
      </root>
    </mxGraphModel>
  </diagram>
</mxfile>
